<svg width="96" height="112" viewBox="0 0 96 112" fill="none" xmlns="http://www.w3.org/2000/svg" role="img" aria-labelledby="title">
  <title id="title">Cybersecurity AI Framework shield</title>
  <path d="M48 4L86 19V49C86 75 70 96 48 106C26 96 10 75 10 49V19L48 4Z" fill="#06111F" stroke="#1687FF" stroke-width="4"/>
  <path d="M48 15L75 26V50C75 69 64 85 48 94C32 85 21 69 21 50V26L48 15Z" fill="#071A2E" stroke="#08E2A1" stroke-width="2" opacity="0.9"/>
  <path d="M34 60L45 70L64 42" stroke="#1E90FF" stroke-width="5" stroke-linecap="round" stroke-linejoin="round"/>
  <path d="M48 29V40M37 36L44 43M59 36L52 43M34 50H44M62 50H52" stroke="#08E2A1" stroke-width="3" stroke-linecap="round"/>
</svg>
